<?xml version="1.0" standalone="no"?>
<!DOCTYPE svg PUBLIC "-//W3C//DTD SVG 20010904//EN"
 "http://www.w3.org/TR/2001/REC-SVG-20010904/DTD/svg10.dtd">
<svg version="1.0" xmlns="http://www.w3.org/2000/svg"
 width="300.000000pt" height="300.000000pt" viewBox="0 0 300.000000 300.000000"
 preserveAspectRatio="xMidYMid meet">
<metadata>
Created by potrace 1.10, written by Peter Selinger 2001-2011
</metadata>
<g transform="translate(0.000000,300.000000) scale(0.100000,-0.100000)"
fill="#000000" stroke="none">
<path d="M1200 1877 c0 -152 2 -159 53 -191 l28 -17 -3 -157 -3 -157 -85 -3
c-47 -2 -90 -7 -97 -10 -6 -4 177 -7 407 -7 230 0 413 3 407 7 -7 3 -50 8 -97
10 l-85 3 -3 157 -3 157 28 17 c51 32 53 39 53 191 l0 143 -112 0 -113 0 2
-147 c1 -82 3 -151 3 -154 0 -3 16 -14 35 -25 l35 -19 0 -157 c0 -151 -1 -158
-20 -158 -19 0 -20 7 -20 140 l0 140 -40 25 -40 25 0 161 0 160 -32 -3 -33 -3
-2 -160 c-1 -141 -4 -161 -19 -170 -10 -5 -29 -20 -42 -33 -23 -22 -23 -27
-20 -152 3 -118 1 -130 -14 -130 -16 0 -18 14 -18 158 l0 158 35 17 c19 9 35
20 35 24 0 5 2 74 3 156 l2 147 -112 0 -113 0 0 -143z m182 -4 c4 -117 -3
-141 -44 -170 l-31 -22 -33 35 -34 34 0 104 c0 56 3 106 7 109 3 4 35 7 69 7
l63 0 3 -97z m374 72 c3 -13 4 -65 3 -114 -4 -85 -5 -90 -36 -120 l-33 -31
-35 31 -35 31 0 114 0 114 65 0 c60 0 65 -2 71 -25z m-216 -311 c19 -22 30
-44 28 -57 -3 -19 -9 -21 -50 -18 -26 1 -56 -3 -67 -9 -18 -9 -21 -8 -22 12
-1 13 0 30 1 37 2 18 50 68 66 70 7 0 26 -15 44 -35z m-50 -124 c0 -11 -7 -20
-15 -20 -8 0 -15 9 -15 20 0 11 7 20 15 20 8 0 15 -9 15 -20z m50 0 c0 -11 -7
-20 -15 -20 -8 0 -15 9 -15 20 0 11 7 20 15 20 8 0 15 -9 15 -20z m-50 -50 c0
-11 -7 -20 -15 -20 -8 0 -15 9 -15 20 0 11 7 20 15 20 8 0 15 -9 15 -20z m53
0 c4 -15 0 -20 -14 -20 -12 0 -19 7 -19 20 0 11 6 20 14 20 7 0 16 -9 19 -20z
m-48 -54 c11 -1 32 1 48 5 29 8 35 1 15 -19 -17 -17 -113 -15 -127 1 -14 18
-2 29 23 21 12 -4 30 -8 41 -8z"/>
<path d="M1090 1213 c0 -7 9 -13 20 -13 18 0 20 -7 20 -55 0 -37 4 -55 13 -55
8 0 11 16 9 55 -4 50 -2 55 17 55 12 0 21 6 21 13 0 8 -17 12 -50 12 -33 0
-50 -4 -50 -12z"/>
<path d="M1226 1223 c-3 -3 -6 -35 -6 -70 0 -49 3 -63 15 -63 10 0 15 10 15
30 0 25 4 30 25 30 21 0 25 -5 25 -30 0 -20 5 -30 15 -30 13 0 15 12 13 68 -3
65 -20 89 -26 37 -3 -19 -9 -25 -28 -25 -19 0 -24 5 -24 24 0 26 -12 40 -24
29z"/>
<path d="M1408 1223 l-38 -4 0 -65 0 -64 40 0 c22 0 40 5 40 10 0 6 -11 10
-24 10 -23 0 -41 22 -29 34 4 3 17 6 30 6 13 0 23 5 23 10 0 6 -13 10 -30 10
-20 0 -30 5 -30 15 0 10 10 15 30 15 20 0 30 5 30 15 0 8 -1 14 -2 13 -2 -1
-20 -3 -40 -5z"/>
<path d="M1545 1155 l0 -65 36 0 c42 0 65 21 53 47 -4 10 -8 32 -8 48 -1 28
-4 30 -41 33 l-40 3 0 -66z m63 33 c-7 -19 -38 -22 -38 -4 0 10 9 16 21 16 12
0 19 -5 17 -12z m0 -61 c2 -12 -3 -17 -17 -17 -15 0 -21 6 -21 21 0 25 33 22
38 -4z"/>
<path d="M1683 1155 c-18 -55 -19 -65 -6 -65 8 0 17 9 20 20 3 11 14 20 25 20
11 0 22 -9 25 -20 3 -11 12 -20 20 -20 8 0 13 6 11 13 -3 6 -13 36 -22 65 -25
74 -46 70 -73 -13z m56 -7 c1 -5 -6 -8 -14 -8 -15 0 -21 31 -8 44 7 6 20 -17
22 -36z"/>
<path d="M1818 1156 c-2 -48 0 -66 10 -66 6 0 12 11 12 25 0 15 6 25 14 25 8
0 17 -11 20 -25 4 -14 13 -25 20 -25 15 0 11 35 -7 58 -6 8 -6 12 2 12 8 0 11
11 9 28 -3 23 -8 27 -40 30 l-36 3 -4 -65z m60 27 c-5 -26 -38 -29 -38 -4 0
15 6 21 21 21 14 0 19 -5 17 -17z"/>
<path d="M1279 1034 c-17 -21 -1 -48 32 -52 13 -2 20 0 16 5 -5 4 -14 8 -20 8
-7 0 -13 8 -15 18 -2 10 3 17 12 17 9 0 16 5 16 10 0 16 -26 12 -41 -6z"/>
<path d="M1340 1035 c-17 -21 -2 -50 26 -50 14 0 19 7 19 30 0 34 -24 45 -45
20z"/>
<path d="M1411 1013 c0 -31 2 -34 9 -18 7 17 9 17 9 3 1 -10 5 -18 10 -18 5 0
12 8 14 18 4 16 5 16 6 0 0 -10 6 -18 12 -18 7 0 9 9 5 23 -3 12 -6 28 -6 35
0 6 -4 12 -10 12 -5 0 -10 -7 -10 -15 0 -8 -4 -15 -10 -15 -5 0 -10 7 -10 15
0 8 -4 15 -10 15 -5 0 -10 -17 -9 -37z"/>
<path d="M1490 1015 c0 -19 5 -35 10 -35 6 0 10 7 10 15 0 8 5 15 10 15 6 0
10 9 10 20 0 13 -7 20 -20 20 -16 0 -20 -7 -20 -35z"/>
<path d="M1551 1018 c-12 -34 -6 -52 10 -28 8 13 10 13 19 0 9 -13 10 -13 10
0 0 25 -12 60 -20 60 -5 0 -13 -14 -19 -32z"/>
<path d="M1610 1014 c0 -20 4 -33 10 -29 5 3 7 13 4 23 -2 9 1 7 7 -5 18 -34
29 -28 28 15 -1 32 -2 34 -8 12 l-7 -25 -8 23 c-11 34 -26 26 -26 -14z"/>
<path d="M1684 1015 c12 -37 26 -47 26 -17 0 10 5 23 12 30 6 6 8 15 4 19 -4
4 -12 1 -17 -7 -8 -11 -12 -12 -16 -2 -11 28 -19 9 -9 -23z"/>
</g>
</svg>
